<svg xmlns="http://www.w3.org/2000/svg" xmlns:xlink="http://www.w3.org/1999/xlink" width="482" zoomAndPan="magnify" viewBox="0 0 361.5 374.999991" height="500" preserveAspectRatio="xMidYMid meet" version="1.0"><defs><g/><clipPath id="13fec9da01"><path d="M 4.230469 3.554688 L 355.761719 3.554688 L 355.761719 224 L 4.230469 224 Z M 4.230469 3.554688 " clip-rule="nonzero"/></clipPath><clipPath id="5e48cf1633"><path d="M 82 47 L 343 47 L 343 371.453125 L 82 371.453125 Z M 82 47 " clip-rule="nonzero"/></clipPath></defs><g clip-path="url(#13fec9da01)"><path fill="#8ad32a" d="M 180.492188 3.492188 C 277.832031 3.492188 356.757812 82.417969 356.757812 179.757812 C 356.757812 194.917969 354.835938 209.617188 351.246094 223.648438 C 351.625 219.054688 351.832031 214.417969 351.832031 209.742188 C 351.832031 115.113281 275.117188 38.402344 180.492188 38.402344 C 85.863281 38.402344 9.15625 115.113281 9.15625 209.742188 C 9.15625 214.417969 9.359375 219.054688 9.738281 223.648438 C 6.148438 209.617188 4.226562 194.917969 4.226562 179.757812 C 4.226562 82.417969 83.152344 3.492188 180.492188 3.492188 Z M 180.492188 3.492188 " fill-opacity="1" fill-rule="evenodd"/></g><g clip-path="url(#5e48cf1633)"><path fill="#00bcff" d="M 180.492188 47.964844 C 269.816406 47.964844 342.226562 120.378906 342.226562 209.742188 C 342.226562 299.109375 269.816406 371.476562 180.492188 371.476562 C 143.746094 371.476562 109.832031 359.199219 82.691406 338.527344 C 104.742188 350.722656 130.132812 357.695312 157.105469 357.695312 C 242.171875 357.695312 311.160156 288.710938 311.160156 203.644531 C 311.160156 118.582031 242.339844 49.761719 157.398438 49.636719 C 164.917969 48.550781 172.644531 47.964844 180.492188 47.964844 Z M 180.492188 47.964844 " fill-opacity="1" fill-rule="evenodd"/></g><path fill="#ff3162" d="M 298.257812 219.222656 C 290.488281 290.335938 230.273438 345.671875 157.105469 345.671875 C 78.683594 345.671875 15.125 282.070312 15.125 203.644531 C 15.125 174.75 23.765625 147.855469 38.636719 125.390625 C 31.996094 141.59375 28.28125 159.296875 28.28125 177.878906 C 28.28125 254.175781 90.125 316.023438 166.421875 316.023438 C 228.308594 316.023438 280.671875 275.304688 298.257812 219.222656 Z M 298.257812 219.222656 " fill-opacity="1" fill-rule="evenodd"/><g fill="#11384f" fill-opacity="1"><g transform="translate(81.623584, 209.40252)"><g><path d="M 25.953125 0 L 17.625 0 L 2 -41 L 8.546875 -41 L 21.453125 -6.921875 L 22.3125 -6.921875 L 35.09375 -41 L 41.484375 -41 Z M 25.953125 0 "/></g></g></g><g fill="#11384f" fill-opacity="1"><g transform="translate(125.075178, 209.40252)"><g><path d="M 10.1875 -48.921875 C 8.894531 -48.921875 7.847656 -49.320312 7.046875 -50.125 C 6.242188 -50.9375 5.84375 -51.960938 5.84375 -53.203125 C 5.84375 -54.441406 6.242188 -55.460938 7.046875 -56.265625 C 7.847656 -57.078125 8.894531 -57.484375 10.1875 -57.484375 C 11.476562 -57.484375 12.523438 -57.078125 13.328125 -56.265625 C 14.128906 -55.460938 14.53125 -54.441406 14.53125 -53.203125 C 14.53125 -51.960938 14.128906 -50.9375 13.328125 -50.125 C 12.523438 -49.320312 11.476562 -48.921875 10.1875 -48.921875 Z M 7.140625 0 L 7.140625 -41 L 13.203125 -41 L 13.203125 0 Z M 7.140625 0 "/></g></g></g><g fill="#11384f" fill-opacity="1"><g transform="translate(145.407104, 209.40252)"><g><path d="M 32.796875 0 L 2.78125 0 L 2.78125 -5.28125 L 25.3125 -35.28125 L 25.09375 -36.0625 L 3.71875 -36.0625 L 3.71875 -41.046875 L 32.453125 -41.046875 L 32.453125 -35.765625 L 9.921875 -5.765625 L 10.1875 -4.984375 L 32.796875 -4.984375 Z M 32.796875 0 "/></g></g></g><g fill="#11384f" fill-opacity="1"><g transform="translate(181.127362, 209.40252)"><g><path d="M 25.015625 -23.6875 L 3.859375 -23.6875 L 3.859375 -29.109375 L 25.015625 -29.109375 Z M 25.015625 -23.6875 "/></g></g></g><g fill="#11384f" fill-opacity="1"><g transform="translate(209.971191, 209.40252)"><g><path d="M 10.1875 -48.921875 C 8.894531 -48.921875 7.847656 -49.320312 7.046875 -50.125 C 6.242188 -50.9375 5.84375 -51.960938 5.84375 -53.203125 C 5.84375 -54.441406 6.242188 -55.460938 7.046875 -56.265625 C 7.847656 -57.078125 8.894531 -57.484375 10.1875 -57.484375 C 11.476562 -57.484375 12.523438 -57.078125 13.328125 -56.265625 C 14.128906 -55.460938 14.53125 -54.441406 14.53125 -53.203125 C 14.53125 -51.960938 14.128906 -50.9375 13.328125 -50.125 C 12.523438 -49.320312 11.476562 -48.921875 10.1875 -48.921875 Z M 7.140625 0 L 7.140625 -41 L 13.203125 -41 L 13.203125 0 Z M 7.140625 0 "/></g></g></g><g fill="#11384f" fill-opacity="1"><g transform="translate(230.303118, 209.40252)"><g><path d="M 27.734375 -6.5 L 29.671875 -2.15625 C 28.703125 -1.1875 27.429688 -0.457031 25.859375 0.03125 C 24.285156 0.53125 22.582031 0.78125 20.75 0.78125 C 12.914062 0.78125 9 -3.179688 9 -11.109375 L 9 -36.0625 L 1.859375 -36.0625 L 1.859375 -41.046875 L 9 -41.046875 L 9 -49.703125 L 15.0625 -50.703125 L 15.0625 -41.046875 L 28.25 -41.046875 L 28.25 -36.0625 L 15.0625 -36.0625 L 15.0625 -11.71875 C 15.0625 -7 17.101562 -4.640625 21.1875 -4.640625 C 23.414062 -4.640625 25.335938 -5.257812 26.953125 -6.5 Z M 27.734375 -6.5 "/></g></g></g></svg>